<?xml version="1.0" encoding="UTF-8"?>
<svg id="Layer_1" data-name="Layer 1" xmlns="http://www.w3.org/2000/svg" viewBox="0 0 800 800">
  <defs>
    <style>
      .cls-1 {
        fill: #13b9ed;
      }

      .cls-1, .cls-2, .cls-3 {
        stroke-width: 0px;
      }

      .cls-2 {
        fill: #97def4;
      }

      .cls-4 {
        stroke: #00b9e7;
      }

      .cls-4, .cls-5 {
        fill: none;
        stroke-linecap: round;
        stroke-miterlimit: 10;
        stroke-width: 7.91px;
      }

      .cls-3 {
        fill: #00b9e7;
      }

      .cls-5 {
        stroke: #fffffc;
      }
    </style>
  </defs>
  <path class="cls-3" d="M196.68,489.99c-.25,0-.47.01-.72.05-7.61,1.16-140.81,21.88-145.89,57.39-3.1,21.71,56.42,39.74,105.27,50.8,7,1.58,5.84,11.87-1.34,11.87h-46.49c-9.2-1.01-12.08,2.95-10.44,10.44,2.01,3.74,4.78,6.45,10.44,5.22h79.5c8.29,1.52,10.89,3.28,9.28,5.22,1.85,2.87-.14,4.53-5.22,5.22h-20.31c-3.85-.2-5.8,1.53-5.8,5.22-.65,4.72.71,6.94,5.22,5.22h102.71s1.74,10.44-13.93,10.44h-66.85c-2.69,0-4.96,2.11-5.03,4.8-.34,12.91,5.91,47.42,82.32,47.42h165.95c4.13.84,6.47,2.49,6.38,5.22,1.01,5.51-.29,9.32-5.22,10.44h-185.79c-.31,0-.64-.04-.94-.1-8.63-1.79-14.41-.76-16.47,3.96-.37.85-.42,1.86-.19,2.77,1.33,5.32,5.82,8.72,15.39,9.04h154.93c7.42.2,8.19,2.41,6.96,5.22,2.35,6.21-.68,9.9-10.44,10.44h-16.83c-6.48-.63-16.79,2.31-16.15,6.67-1,6.37,7.26,8.77,12.09,9h77.49c.18,0,.34,0,.52-.03,5.39-.58,96.02-10.6,109.27-30.07.53-.79.81-1.75.75-2.7-.55-9.63-14.74-17.59-22.37-19.26-2.24-.49-3.77-2.58-3.77-4.87v-.72c0-2.78,2.25-5.03,5.03-5.03h62.86c6.22-1.61,10.66-4.43,10.44-10.44,3.35-4.54.41-9.53-9.25-15.01-.76-.43-1.65-.66-2.53-.66h-82.23c-4.48,1.07-7.48-2.57-9.75-8.5-.47-1.23-.45-2.66.15-3.83,2.75-5.36,7.69-8.21,14.83-8.55h151.45c5.71-1.2,7.36-3.62,8.91-7.84.38-1.03.42-2.2,0-3.21-1.31-3.08-3.13-6.86-7.76-9.27-.72-.38-1.57-.57-2.39-.57h-77.09c-2.47-.9-4.55-2.25-5.22-5.22.17-4.69,1.5-7.93,3.99-9.72.76-.54,1.73-.72,2.66-.72h60.77c.31,0,.64-.03.94-.08,23.48-4.17,33.59-10.54,39.14-17.66,1.44-1.85,1.3-4.47-.18-6.29-1.95-2.39-4.1-4.52-6.53-6.32-4.1-3.04-3.14-9.35,1.75-10.83,18.9-5.7,45.57-17.19,48.9-37.16,5.22-31.33-114.89-57.45-151.45-57.45H196.68Z"/>
  <path class="cls-3" d="M403.32,26.83L146.57,177.99c-6.54,3.76-10.57,10.69-10.57,18.19v342.15c0,8.67,5.36,16.45,13.51,19.59l261.16,100.82c5.86,2.26,12.43,1.83,17.94-1.19l251.44-137.63c6.76-3.7,10.96-10.75,10.96-18.41V179.72c0-7.78-4.33-14.92-11.25-18.57L423.89,26.46c-6.46-3.41-14.24-3.26-20.57.37Z"/>
  <g>
    <g>
      <path class="cls-1" d="M679.89,516.43l-109.32,57.44c-8.38,4.45-18.83-1.28-18.66-10.22l-3.02-140.95c.08-4.2,2.62-8.02,6.64-9.97l113.17-62.69c8.37-4.06,18.41,1.68,18.25,10.43l-.83,146.2c-.08,4.04-2.44,7.75-6.23,9.76Z"/>
      <path class="cls-2" d="M676.8,512.74l-104.31,56.41c-7.47,4.1-16.78-1.16-16.62-9.39l-3.23-133.72c.07-3.86,2.34-7.38,5.92-9.17l108.17-62.1c7.46-3.74,16.4,1.54,16.25,9.59l-.63,139.41c-.07,3.72-2.18,7.13-5.55,8.98Z"/>
    </g>
    <path class="cls-5" d="M643.25,514.85c31.64-5.27,42.19-26.37,31.64-63.28"/>
    <path class="cls-5" d="M579.96,526.72c0-79.1,0-90.97,87.01-134.48"/>
  </g>
  <g>
    <path class="cls-1" d="M407.29,342.58l-121.56,70.66c-3.95,2.3-6.43,6.5-6.56,11.1l.4,137.07c-.13,4.75,2.28,9.2,6.3,11.66l121.48,74.33c3.98,2.44,8.94,2.55,13.03.31l128.41-64.01c4.22-2.31,6.85-6.77,6.85-11.62l-3.38-146.09c0-4.75-2.53-9.14-6.62-11.49l-125.35-71.96c-4.04-2.32-8.98-2.3-13.01.04Z"/>
    <path class="cls-2" d="M407.54,348.41l-118.04,67.96c-3.84,2.21-6.25,6.25-6.37,10.68l.39,131.83c-.12,4.57,2.21,8.85,6.12,11.22l117.96,71.49c3.87,2.34,8.68,2.46,12.66.3l124.79-61.3c4.1-2.22,6.65-6.51,6.65-11.18l-3.38-140.77c0-4.57-2.46-8.79-6.43-11.05l-121.72-69.21c-3.92-2.23-8.72-2.22-12.63.03Z"/>
    <path class="cls-5" d="M500.86,582.09c31.64-5.27,42.19-26.37,31.64-63.28"/>
    <path class="cls-5" d="M437.57,590c0-79.1,0-90.97,87.01-134.48"/>
    <path class="cls-5" d="M391.43,590c2.64-87.01-1.32-90.97-60.65-118.66"/>
    <path class="cls-5" d="M350.56,439.7c45.03,36.68,94.31,24.26,146.34-19.78"/>
    <g>
      <polyline class="cls-4" points="303.1 431.79 409.89 495.07 524.59 433.99"/>
      <line class="cls-4" x1="409.89" y1="495.07" x2="415.82" y2="629.55"/>
    </g>
  </g>
  <g>
    <path class="cls-1" d="M551.9,104.74l-131.69,79.1c-3.95,2.3-6.43,6.5-6.56,11.1l.4,137.07c-.13,4.75,2.28,9.2,6.3,11.66l121.48,74.33c3.98,2.44,8.94,2.55,13.03.31l125.03-70.76c4.22-2.31,6.85-6.77,6.85-11.62v-159.59c0-4.75-2.53-9.14-6.62-11.49l-115.22-60.15c-4.04-2.32-8.98-2.3-13.01.04Z"/>
    <path class="cls-2" d="M552.14,110.56l-128.17,76.4c-3.84,2.21-6.25,6.25-6.37,10.68l.39,131.83c-.12,4.57,2.21,8.85,6.12,11.22l117.96,71.49c3.87,2.34,8.68,2.46,12.66.3l121.41-68.06c4.1-2.22,6.65-6.51,6.65-11.18v-154.27c0-4.57-2.46-8.79-6.43-11.05l-111.59-57.4c-3.92-2.23-8.72-2.22-12.63.03Z"/>
    <path class="cls-5" d="M635.33,352.69c31.64-5.27,42.19-26.37,31.64-63.28"/>
    <path class="cls-5" d="M572.05,360.6c0-79.1,0-90.97,87.01-134.48"/>
    <path class="cls-5" d="M525.91,360.6c2.64-87.01-1.32-90.97-60.65-118.66"/>
    <path class="cls-5" d="M485.04,210.3c45.03,36.68,94.31,24.26,146.34-19.78"/>
    <g>
      <polyline class="cls-4" points="437.57 202.39 544.37 265.67 659.07 204.59"/>
      <line class="cls-4" x1="544.37" y1="265.67" x2="550.3" y2="400.15"/>
    </g>
  </g>
  <g>
    <path class="cls-1" d="M273.93,110.92l-126.63,74.04c-3.95,2.3-6.43,6.5-6.56,11.1l.4,132c-.13,4.75,2.28,9.2,6.3,11.66l128.23,72.64c3.98,2.44,8.94,2.55,13.03.31l118.28-69.07c4.22-2.31,6.85-6.77,6.85-11.62v-139.34c0-4.75-2.53-9.14-6.62-11.49l-120.29-70.27c-4.04-2.32-8.98-2.3-13.01.04Z"/>
    <path class="cls-2" d="M274.17,116.74l-123.11,71.34c-3.84,2.21-6.25,6.25-6.37,10.68l.39,126.77c-.12,4.57,2.21,8.85,6.12,11.22l124.71,69.8c3.87,2.34,8.68,2.46,12.66.3l114.66-66.37c4.1-2.22,6.65-6.51,6.65-11.18v-134.02c0-4.57-2.46-8.79-6.43-11.05l-116.66-67.53c-3.92-2.23-8.72-2.22-12.63.03Z"/>
    <path class="cls-5" d="M362.43,348.73c31.64-5.27,42.19-26.37,31.64-63.28"/>
    <path class="cls-5" d="M299.14,356.64c0-79.1,0-90.97,87.01-134.48"/>
    <path class="cls-5" d="M253,356.64c2.64-87.01-1.32-90.97-60.65-118.66"/>
    <path class="cls-5" d="M212.13,206.34c45.03,36.68,94.31,24.26,146.34-19.78"/>
    <g>
      <polyline class="cls-4" points="164.67 198.43 271.46 261.72 386.16 200.63"/>
      <line class="cls-4" x1="271.46" y1="261.72" x2="277.39" y2="396.19"/>
    </g>
  </g>
  <g>
    <g>
      <path class="cls-1" d="M146.82,496.17l116.07,67.57c8.38,4.45,18.83-1.28,18.66-10.22l-.35-130.82c-.08-4.2-2.62-8.02-6.64-9.97l-115.39-71.13c-8.37-4.06-18.41,1.68-18.25,10.43l-.33,134.39c.08,4.04,2.44,7.75,6.23,9.76Z"/>
      <path class="cls-2" d="M149.91,492.48l111.06,66.54c7.47,4.1,16.78-1.16,16.62-9.39l-.14-123.59c-.07-3.86-2.34-7.38-5.92-9.17l-110.38-70.54c-7.46-3.74-16.4,1.54-16.25,9.59l-.53,127.59c.07,3.72,2.18,7.13,5.55,8.98Z"/>
    </g>
    <path class="cls-5" d="M191.52,506.96c-26.73-15.3-35.93-40.78-36.32-55.4"/>
    <path class="cls-5" d="M250.12,526.72c0-79.1,0-90.97-87.01-134.48"/>
  </g>
  <g>
    <path class="cls-1" d="M420.53,183.49l124.73-72.44c6.18-4.02,5.43-13.28-1.3-16.27l-124.12-64.77c-2.32-1.03-4.96-1.06-7.3-.09l-120.68,70.7c-7.15,2.95-7.76,12.84-1.03,16.65l120.08,66.51c3.02,1.71,6.73,1.6,9.64-.3Z"/>
    <path class="cls-2" d="M420,179.52l117.4-67.8c6.16-4.02,5.42-13.27-1.3-16.26l-116.52-61.49c-2.32-1.03-4.97-1.06-7.32-.09l-110.54,66.42c-7.14,2.96-7.75,12.83-1.03,16.65l109.67,62.87c3.02,1.72,6.74,1.6,9.65-.3Z"/>
    <path class="cls-5" d="M473.17,81.7c-56.26-45.83-135.43,10.54-146.34,19.78"/>
    <path class="cls-5" d="M391.73,148.34c29.53,12.53,49.75.4,60.66-36.41"/>
  </g>
</svg>